<svg
  version="1.1"
  id="Layer_1"
  xmlns="http://www.w3.org/2000/svg"
  xmlns:xlink="http://www.w3.org/1999/xlink"
  viewBox="0 0 64 64"
  enable-background="new 0 0 64 64"
  xml:space="preserve"
>
  <circle fill="#F9EBB2" cx="32" cy="32" r="30" />
  <g>
    <path
      fill="#394240"
      d="M38.936,33.576L35.07,30.609l7.982-7.983c0.202-0.202,0.202-0.533,0-0.735l-1.99-1.99
    c-0.202-0.202-0.533-0.202-0.735,0l-7.983,7.983l-2.967-3.866c-0.606-0.787-1.69-0.914-2.477-0.308L13.272,33.616
    c-0.787,0.606-0.914,1.69-0.308,2.477l2.967,3.866l-7.982,7.982c-0.202,0.202-0.202,0.533,0,0.735l1.99,1.99
    c0.202,0.202,0.533,0.202,0.735,0l7.982-7.982l3.867,2.967c0.787,0.606,1.69,0.914,2.477,0.308l14.558-10.546
    C39.218,35.361,39.342,34.377,38.936,33.576z M17.417,39.478l-3.991-5.197l14.47-10.49l3.991,5.197L17.417,39.478z M35.422,27.272
    l1.256,1.256l-3.143,3.143l-1.256-1.256L35.422,27.272z M15.5,45.449l-1.256-1.256l3.143-3.143l1.256,1.256L15.5,45.449z
     M25.845,47.805c-0.297,0.216-1.062-0.158-1.348-0.401L14.5,40.44l3.143-3.143l8.998,8.998L25.845,47.805z M29.947,44.885
    l-1.732-1.732l14.47-10.49l1.732,1.732L29.947,44.885z"
    />
  </g>
</svg>
